# xmcd CD database file
#
# Track frame offsets:
#	150
#	18605
#	38455
#	58227
#	73097
#	94318
#	113171
#	135472
#	154705
#	165624
#
# Disc length: 2397 seconds
#
# Revision: 2
# Processed by: cddbd v1.5.2PL0 Copyright (c) Steve Scherf et al.
# Submitted via: CDex 1.51
#
DISCID=82095b0a
DTITLE=Angela Hacker - Nashville Star Season 5: The Winner Is Angela Hacker
DYEAR=2007
DGENRE=Country
TTITLE0=Love Me Wild
TTITLE1=Strawberry Wine
TTITLE2=You Got Me
TTITLE3=Do Right Woman Do Right Man
TTITLE4=I Can't Make You Love Me
TTITLE5=Emotionless
TTITLE6=Total Loss
TTITLE7=I Was Country When Country Wasn't Cool
TTITLE8=When Will I Be Loved
TTITLE9=Hard To Handle (Featuring Zac Hacker)
EXTD=YEAR: 2007
EXTT0=
EXTT1=
EXTT2=
EXTT3=
EXTT4=
EXTT5=
EXTT6=
EXTT7=
EXTT8=
EXTT9=
PLAYORDER=
